<svg width="23" height="24" viewBox="0 0 23 24" fill="none" xmlns="http://www.w3.org/2000/svg">
<path fill-rule="evenodd" clip-rule="evenodd" d="M11.5 0.75C5.14625 0.75 0 5.89625 0 12.25C0 17.3387 3.29187 21.6369 7.86312 23.1606C8.43812 23.2612 8.65375 22.9162 8.65375 22.6144C8.65375 22.3412 8.63938 21.4356 8.63938 20.4725C5.75 21.0044 5.0025 19.7681 4.7725 19.1212C4.64313 18.7906 4.0825 17.77 3.59375 17.4969C3.19125 17.2812 2.61625 16.7494 3.57938 16.735C4.485 16.7206 5.13188 17.5687 5.3475 17.9137C6.3825 19.6531 8.03563 19.1644 8.69688 18.8625C8.7975 18.115 9.0994 17.6119 9.43 17.3244C6.87125 17.0369 4.1975 16.045 4.1975 11.6462C4.1975 10.3956 4.64312 9.36062 5.37625 8.55562C5.26125 8.26812 4.85875 7.08937 5.49125 5.50812C5.49125 5.50812 6.45438 5.20625 8.65375 6.68687C9.5738 6.42812 10.5513 6.29875 11.5288 6.29875C12.5063 6.29875 13.4838 6.42812 14.4038 6.68687C16.6031 5.19187 17.5662 5.50812 17.5662 5.50812C18.1987 7.08937 17.7962 8.26812 17.6812 8.55562C18.4144 9.36062 18.86 10.3812 18.86 11.6462C18.86 16.0594 16.1719 17.0369 13.6131 17.3244C14.03 17.6837 14.3894 18.3737 14.3894 19.4519C14.3894 20.99 14.375 22.2262 14.375 22.6144C14.375 22.9162 14.5906 23.2756 15.1656 23.1606C19.7081 21.6369 23 17.3244 23 12.25C23 5.89625 17.8538 0.75 11.5 0.75Z" fill="#FB9C9C"/>
</svg>
